<?xml version="1.0" standalone="no"?>
<!DOCTYPE svg PUBLIC "-//W3C//DTD SVG 20010904//EN"
 "http://www.w3.org/TR/2001/REC-SVG-20010904/DTD/svg10.dtd">
<svg version="1.0" xmlns="http://www.w3.org/2000/svg"
 width="225.000000pt" height="224.000000pt" viewBox="0 0 225.000000 224.000000"
 preserveAspectRatio="xMidYMid meet">

<g transform="translate(0.000000,224.000000) scale(0.100000,-0.100000)"
fill="#000000" stroke="none">
<path d="M862 2220 c-169 -9 -257 -19 -467 -56 -200 -34 -227 -44 -237 -82 -5
-18 -15 -32 -22 -32 -23 0 -36 -25 -43 -80 -4 -38 -11 -54 -23 -57 -23 -6 -40
-45 -40 -92 0 -25 -5 -41 -15 -45 -22 -8 -18 -25 5 -19 18 5 20 0 20 -46 0
-28 2 -51 5 -51 3 0 17 8 32 17 25 16 26 16 45 -7 11 -14 34 -52 51 -85 25
-50 31 -75 35 -147 4 -84 -4 -185 -15 -175 -2 3 -11 27 -19 54 -7 26 -11 35
-9 18 3 -16 8 -73 12 -125 6 -99 -4 -160 -32 -195 -15 -19 -16 -18 -10 11 10
50 8 135 -3 146 -6 6 -11 -16 -14 -60 -3 -41 -13 -82 -24 -101 -19 -33 -41
-43 -29 -13 41 105 25 309 -35 445 -29 66 -38 52 -10 -16 l23 -54 -22 -22
c-18 -18 -21 -31 -19 -88 l2 -68 3 67 c3 49 8 68 20 72 25 10 28 0 26 -75 -1
-48 2 -68 10 -66 8 1 11 -16 10 -58 -4 -76 -19 -144 -49 -217 -23 -56 -24 -65
-24 -340 0 -257 6 -329 24 -300 10 16 26 152 21 175 -12 49 10 48 63 -3 52
-50 153 -107 229 -130 68 -21 97 -70 41 -70 -58 0 -268 -85 -258 -105 3 -6 41
-9 88 -8 45 1 82 -1 82 -5 0 -3 -9 -15 -19 -26 -10 -12 -28 -39 -40 -61 l-21
-40 23 -3 c13 -2 59 12 103 31 70 30 121 45 254 77 19 4 77 14 128 21 50 7 92
16 92 20 0 10 55 -6 105 -30 75 -36 165 -61 223 -61 58 0 131 21 257 74 33 13
64 21 70 17 5 -5 46 -14 90 -20 151 -23 266 -51 367 -91 92 -37 138 -48 138
-35 0 14 -35 73 -57 96 -14 15 -20 29 -15 33 5 3 42 4 83 3 42 -1 76 2 78 8 9
21 -137 82 -261 109 -26 6 -40 26 -19 26 5 0 12 8 15 18 4 10 32 27 72 41 64
23 156 87 200 138 l22 26 12 -92 c7 -50 19 -99 27 -109 12 -15 13 -13 8 18
l-5 35 14 -30 c13 -27 14 0 15 265 0 177 -3 289 -8 281 -10 -16 -21 17 -40
119 -20 108 -23 147 -12 154 6 4 11 0 11 -9 0 -27 21 -60 30 -46 13 22 -2 62
-27 74 -21 9 -23 16 -19 46 3 20 8 60 12 89 4 35 10 52 20 52 11 0 14 -16 14
-65 0 -36 4 -65 8 -65 11 0 4 107 -9 141 -8 20 -6 36 5 64 9 21 15 40 12 42
-7 8 -48 -102 -63 -171 -17 -79 -13 -250 6 -300 6 -16 9 -31 6 -34 -7 -8 -34
30 -35 48 0 8 -6 26 -13 40 -7 14 -12 45 -10 70 3 40 2 42 -8 20 -6 -15 -8
-50 -5 -87 4 -35 4 -63 1 -63 -12 0 -35 71 -35 107 0 21 -12 65 -26 98 -13 33
-30 99 -36 147 -9 74 -9 97 5 154 17 67 74 185 93 191 6 2 27 -8 47 -21 20
-14 39 -21 42 -16 8 12 -6 41 -16 34 -6 -3 -21 1 -34 10 -21 14 -23 19 -14 48
5 18 9 57 9 85 0 54 12 67 38 41 9 -9 12 -9 12 -1 0 7 -8 18 -19 25 -12 9 -21
32 -26 67 -5 37 -14 59 -31 73 -12 12 -26 33 -29 49 -8 34 -3 32 -185 63 -391
67 -744 92 -1058 76z m665 -44 c84 -8 169 -18 190 -21 21 -3 65 -10 98 -15
156 -24 256 -43 260 -50 10 -16 15 -116 7 -128 -8 -11 -36 -10 -162 8 -547 77
-1091 79 -1561 5 -86 -14 -162 -25 -168 -25 -9 0 -11 19 -7 63 2 34 5 67 5 74
2 20 249 69 501 99 145 16 621 11 837 -10z m-1365 -198 c3 -49 5 -53 28 -53
20 0 26 -6 28 -26 4 -35 -17 -55 -66 -63 -30 -4 -41 -11 -45 -28 -4 -13 -2
-27 3 -32 22 -22 10 -52 -25 -69 l-35 -17 0 96 0 96 30 11 c27 10 30 15 30 58
0 60 7 79 31 79 15 0 18 -9 21 -52z m888 34 c0 -12 -66 -42 -140 -63 -80 -23
-197 -25 -271 -3 -67 20 -75 25 -57 35 13 7 224 25 378 32 36 2 71 4 78 5 6 1
12 -2 12 -6z m528 -24 c45 -6 82 -14 82 -18 0 -14 -129 -40 -197 -40 -91 0
-263 48 -263 74 0 11 265 0 378 -16z m570 -48 c2 -36 1 -79 -3 -97 -5 -31 -7
-31 -38 -21 -18 6 -39 17 -47 24 -12 12 -12 16 8 30 12 8 22 22 22 30 0 8 5
14 10 14 6 0 10 21 10 46 0 38 3 45 18 42 14 -3 18 -16 20 -68z m-203 -145
c52 -47 58 -56 48 -72 -76 -112 -115 -189 -129 -255 -20 -94 -13 -198 20 -276
13 -31 23 -58 22 -60 -4 -4 -1578 -3 -1582 1 -2 2 5 27 16 56 32 83 44 195 29
266 -16 80 -38 130 -93 213 -25 38 -46 73 -46 78 0 5 37 35 83 67 56 40 88 57
102 53 11 -3 61 -17 110 -32 127 -37 308 -39 445 -6 52 13 103 28 113 34 14 7
31 6 61 -6 214 -81 469 -82 641 -2 59 27 65 25 160 -59z m-900 -759 c56 -24
59 -39 51 -245 -4 -101 -9 -188 -11 -192 -3 -4 -20 0 -38 9 -26 14 -60 17
-173 16 l-140 0 33 125 c19 69 41 158 51 198 9 39 20 75 25 79 22 22 156 29
202 10z m330 -2 c18 -4 24 -21 39 -107 10 -56 24 -127 31 -157 7 -30 16 -76
20 -102 l6 -46 -115 5 c-104 5 -162 -1 -219 -23 -14 -5 -16 13 -16 163 0 92 4
184 9 204 10 36 36 61 75 72 21 6 135 0 170 -9z m-591 -29 c-7 -16 -24 -21
-24 -6 0 8 7 13 27 20 1 1 0 -6 -3 -14z m-133 -161 c-27 -77 -61 -174 -76
-217 -36 -104 -67 -175 -72 -160 -2 7 1 22 8 35 13 23 46 113 125 338 56 160
54 154 60 148 2 -3 -17 -68 -45 -144z m808 109 c13 -21 29 -69 37 -114 7 -43
25 -122 38 -176 14 -53 24 -99 22 -100 -1 -2 -14 10 -29 25 -19 20 -31 48 -41
102 -8 41 -26 126 -39 188 -13 61 -22 112 -18 112 3 0 17 -17 30 -37z m-689
-105 c-17 -62 -38 -130 -46 -151 -8 -20 -14 -46 -14 -57 0 -19 -59 -95 -67
-86 -4 3 21 87 62 211 7 22 23 72 34 110 20 66 52 118 59 96 2 -5 -11 -61 -28
-123z m739 118 c6 -7 15 -33 20 -57 5 -24 20 -82 34 -129 48 -166 77 -276 77
-293 0 -14 -9 -16 -62 -11 -170 14 -376 20 -408 11 -19 -5 -61 -6 -95 -3 -75
8 -221 7 -390 -4 -71 -4 -132 -6 -133 -5 -2 2 13 52 34 112 21 59 58 169 84
243 29 86 51 136 61 138 12 2 -3 -53 -58 -220 -40 -123 -73 -225 -73 -228 0
-3 225 -6 500 -6 275 0 500 3 500 6 0 4 -6 26 -14 51 -8 24 -31 116 -51 204
-21 88 -42 164 -46 170 -12 12 -11 35 0 35 5 0 14 -6 20 -14z m-453 -389 c31
-36 31 -52 2 -42 -31 11 -57 11 -243 1 l-160 -8 34 36 c40 41 56 44 224 42
117 -1 119 -1 143 -29z m424 19 c8 -4 26 -21 39 -38 l24 -30 -159 8 c-185 10
-211 10 -243 -1 -36 -12 -23 24 19 53 34 23 40 24 170 19 74 -2 142 -8 150
-11z m-253 -132 c-3 -3 -12 -4 -19 -1 -8 3 -5 6 6 6 11 1 17 -2 13 -5z m-382
-169 c192 -73 259 -95 294 -95 40 0 139 31 231 73 99 44 189 60 303 54 56 -3
119 -11 139 -19 l38 -13 -40 -46 -39 -46 -109 5 c-66 3 -117 0 -128 -6 -14 -8
9 -10 86 -9 58 0 115 -3 127 -7 17 -5 28 0 49 23 18 20 37 31 54 31 31 0 168
-40 225 -67 l40 -18 -93 -3 -92 -3 50 -61 c28 -33 49 -62 47 -64 -2 -3 -33 9
-68 26 -80 37 -190 65 -339 86 -114 17 -145 27 -134 46 8 13 -26 3 -96 -29
-109 -50 -191 -73 -254 -72 -68 1 -112 11 -109 25 16 93 0 112 -55 65 l-32
-28 30 0 c35 0 43 -5 38 -27 -2 -12 -19 -8 -89 23 -116 52 -129 56 -129 38 0
-19 -18 -26 -93 -33 -138 -13 -308 -56 -409 -104 -46 -22 -42 -6 13 54 l51 56
-86 0 c-47 0 -86 4 -86 8 0 10 167 68 223 78 34 6 42 3 71 -25 31 -30 32 -31
91 -21 33 6 89 7 125 4 49 -5 62 -4 54 5 -12 13 -177 17 -207 5 -14 -5 -30 5
-63 37 -24 24 -44 47 -44 51 0 7 50 23 100 32 14 3 75 3 135 1 90 -2 123 -8
180 -30z m167 -137 c-6 -6 -15 -8 -19 -4 -4 4 -1 11 7 16 19 12 27 3 12 -12z"/>
<path d="M711 2138 c-4 -13 -10 -29 -13 -37 -2 -9 -9 -2 -17 17 -9 20 -20 32
-33 32 -17 0 -19 -5 -12 -47 7 -54 12 -65 23 -59 4 3 6 20 4 38 l-3 33 17 -32
c9 -18 23 -33 30 -33 8 0 13 13 14 33 l1 32 16 -35 c15 -33 16 -33 20 -11 11
67 -27 122 -47 69z"/>
<path d="M803 2110 c-17 -40 -18 -50 -7 -50 8 0 14 5 14 10 0 6 14 10 30 10
17 0 30 -4 30 -10 0 -5 7 -10 15 -10 8 0 15 3 15 6 0 15 -53 94 -64 94 -7 0
-22 -22 -33 -50z m47 6 c0 -8 -4 -18 -10 -21 -5 -3 -10 3 -10 14 0 12 5 21 10
21 6 0 10 -6 10 -14z"/>
<path d="M920 2110 l0 -50 45 0 c25 0 45 5 45 10 0 6 -13 10 -29 10 -25 0 -29
4 -35 40 -9 56 -26 50 -26 -10z"/>
<path d="M1140 2139 c0 -14 10 -24 30 -32 17 -6 30 -15 30 -19 0 -15 -20 -18
-39 -6 -11 7 -24 9 -28 5 -13 -13 20 -27 57 -25 27 2 35 7 35 22 0 19 -12 29
-49 41 -15 4 -17 8 -8 17 9 9 15 9 24 0 16 -16 28 -15 28 3 0 11 -11 15 -40
15 -34 0 -40 -3 -40 -21z"/>
<path d="M1260 2111 c0 -35 4 -51 16 -55 47 -18 84 7 84 58 0 50 -14 52 -25 4
-8 -32 -16 -43 -30 -43 -16 0 -21 8 -23 43 -4 58 -22 53 -22 -7z"/>
<path d="M1390 2116 c0 -19 -3 -41 -6 -50 -4 -11 0 -16 12 -16 9 0 14 3 11 7
-12 12 15 33 43 33 31 0 47 25 29 46 -6 8 -29 14 -50 14 -38 0 -39 -1 -39 -34z
m70 3 c0 -16 -31 -22 -43 -10 -9 9 -9 14 2 20 16 10 41 4 41 -10z"/>
<path d="M505 2093 c8 -53 12 -63 26 -63 5 0 7 11 3 25 -8 31 8 33 43 5 31
-24 51 -26 32 -3 -8 9 -14 30 -14 47 0 30 -2 31 -49 34 l-48 3 7 -48z m75 18
c0 -9 -24 -21 -41 -21 -5 0 -9 7 -9 15 0 9 9 15 25 15 14 0 25 -4 25 -9z"/>
<path d="M1510 2121 c0 -10 -3 -32 -6 -49 -6 -29 -5 -30 37 -34 24 -3 48 -1
54 3 5 5 -7 9 -29 9 -30 0 -37 3 -34 18 3 12 12 16 31 14 15 -1 27 2 27 8 0 5
-11 10 -25 10 -14 0 -25 5 -25 10 0 6 14 10 30 10 17 0 30 5 30 10 0 6 -20 10
-45 10 -37 0 -45 -3 -45 -19z"/>
<path d="M1635 2105 c-3 -14 -7 -36 -10 -50 -6 -30 14 -35 22 -5 6 23 33 27
33 5 0 -8 10 -19 21 -26 20 -10 21 -9 16 11 -3 12 -1 30 5 40 19 30 3 50 -41
50 -35 0 -41 -3 -46 -25z m75 -6 c0 -15 -30 -23 -42 -11 -6 6 -7 15 -4 20 7
12 46 4 46 -9z"/>
<path d="M372 2108 c-31 -31 -2 -88 44 -88 56 0 78 34 54 81 -12 22 -78 27
-98 7z m62 -4 c19 -7 22 -60 4 -67 -32 -11 -68 34 -47 59 13 16 20 17 43 8z"/>
<path d="M1756 2075 c-7 -45 0 -74 14 -58 4 4 11 29 14 56 6 37 4 47 -7 47
-10 0 -17 -15 -21 -45z"/>
<path d="M308 2104 c-4 -4 -5 -18 -2 -30 7 -29 -7 -31 -31 -4 -38 42 -57 16
-34 -49 14 -40 33 -41 24 0 -7 29 -6 30 13 20 12 -6 24 -16 27 -21 3 -6 15
-10 26 -10 16 0 19 4 13 23 -15 50 -29 78 -36 71z"/>
<path d="M1814 2085 c-21 -32 -15 -57 19 -73 39 -19 81 2 85 43 7 55 -72 78
-104 30z m86 -18 c0 -24 -26 -49 -46 -45 -25 4 -31 48 -9 65 20 14 55 1 55
-20z"/>
<path d="M1956 2092 c-11 -20 -17 -92 -7 -92 7 0 14 7 17 15 9 23 29 18 42
-10 6 -14 16 -25 22 -25 13 0 13 6 0 30 -7 13 -6 19 5 24 26 10 18 45 -12 51
-58 12 -63 13 -67 7z m65 -22 c15 0 10 -17 -6 -24 -22 -8 -45 4 -38 20 3 9 12
13 20 10 8 -3 19 -6 24 -6z"/>
<path d="M815 1660 c3 -5 8 -10 11 -10 2 0 4 5 4 10 0 6 -5 10 -11 10 -5 0 -7
-4 -4 -10z"/>
<path d="M1007 1650 c-71 -18 -115 -52 -154 -118 -24 -41 -39 -142 -21 -142 4
0 15 -14 24 -32 19 -37 44 -60 99 -91 34 -19 55 -22 135 -22 81 1 101 4 135
24 82 48 115 99 115 178 0 45 -33 133 -50 133 -4 0 -18 11 -31 23 -13 13 -39
29 -57 35 -49 17 -151 23 -195 12z"/>
<path d="M1330 1286 c0 -2 7 -6 15 -10 8 -3 15 -1 15 4 0 6 -7 10 -15 10 -8 0
-15 -2 -15 -4z"/>
<path d="M1049 932 c-3 -20 -2 -29 4 -23 5 5 7 19 5 32 -3 20 -5 19 -9 -9z"/>
<path d="M963 883 c-7 -15 -11 -29 -8 -31 3 -3 5 0 5 7 0 7 6 11 13 8 10 -4
13 2 9 19 -2 13 -5 24 -6 24 0 0 -7 -12 -13 -27z"/>
<path d="M1006 901 c-3 -5 1 -11 9 -15 8 -3 15 -1 15 4 0 13 -18 22 -24 11z"/>
<path d="M1048 854 c-9 -8 9 -34 23 -34 5 0 9 5 9 11 0 5 -4 8 -9 4 -5 -3 -11
2 -13 11 -2 9 -6 12 -10 8z"/>
<path d="M888 836 c-10 -7 -15 -16 -12 -19 4 -3 13 1 21 9 9 8 14 17 12 19 -2
2 -12 -2 -21 -9z"/>
<path d="M812 828 c-19 -19 -15 -68 6 -67 10 0 12 3 5 6 -16 6 -17 49 -2 59 8
4 9 -1 4 -17 -5 -19 -4 -21 4 -9 22 31 8 53 -17 28z"/>
<path d="M1001 811 c-10 -7 -10 -10 -1 -16 6 -4 16 -3 22 3 13 13 -4 23 -21
13z"/>
<path d="M957 786 c-10 -25 -5 -28 24 -17 16 7 18 10 7 10 -9 1 -18 6 -20 13
-3 7 -7 5 -11 -6z"/>
<path d="M930 764 c0 -6 -10 -15 -22 -21 -15 -6 -18 -12 -10 -17 7 -4 12 -3
12 3 0 6 6 8 14 5 18 -7 27 8 15 26 -5 8 -9 10 -9 4z"/>
<path d="M804 691 c-1 -37 -1 -38 17 -20 11 11 19 29 18 42 0 20 -1 21 -8 2
-7 -17 -9 -18 -17 -2 -7 12 -10 7 -10 -22z"/>
<path d="M867 711 c-3 -12 -1 -21 3 -21 15 0 23 21 12 32 -6 6 -11 2 -15 -11z"/>
<path d="M770 695 c-7 -9 -8 -15 -2 -15 5 0 12 7 16 15 3 8 4 15 2 15 -2 0 -9
-7 -16 -15z"/>
<path d="M1307 1019 c-10 -6 -34 -9 -53 -7 -33 4 -44 -4 -23 -17 6 -4 8 -13 5
-21 -3 -8 0 -11 9 -7 8 3 12 9 9 14 -3 5 -1 9 5 9 19 0 21 -19 4 -29 -16 -9
-14 -10 10 -11 21 0 27 -5 27 -21 0 -16 5 -20 20 -16 17 4 20 0 20 -28 0 -18
-6 -36 -12 -38 -9 -4 -8 -6 2 -6 10 -1 17 -12 18 -31 2 -26 -1 -30 -22 -30
-14 0 -28 -5 -32 -11 -4 -7 -22 -9 -50 -4 -33 5 -48 2 -59 -9 -8 -8 -15 -17
-15 -20 0 -3 44 -5 98 -4 53 1 107 -2 120 -6 26 -9 30 10 7 40 -8 11 -14 42
-15 75 0 61 -23 104 -55 104 -10 0 -21 10 -26 23 -7 18 -5 22 11 22 13 0 20 7
20 20 0 23 1 23 -23 9z m61 -256 c-10 -2 -28 -2 -40 0 -13 2 -5 4 17 4 22 1
32 -1 23 -4z"/>
<path d="M1213 925 c0 -18 19 -15 25 3 2 7 -3 12 -10 12 -8 0 -15 -7 -15 -15z"/>
<path d="M1260 928 c0 -22 17 -41 24 -29 4 6 3 11 -3 11 -6 0 -8 7 -5 15 4 8
1 15 -5 15 -6 0 -11 -6 -11 -12z"/>
<path d="M1158 763 c7 -3 16 -2 19 1 4 3 -2 6 -13 5 -11 0 -14 -3 -6 -6z"/>
<path d="M1272 713 c22 -46 33 -63 46 -68 19 -7 28 2 36 37 5 22 3 26 -9 22
-8 -4 -15 -10 -15 -15 0 -5 -7 -9 -16 -9 -8 0 -13 4 -10 8 2 4 -4 14 -16 21
-11 7 -18 9 -16 4z"/>
<path d="M697 280 c-36 -40 -34 -50 8 -43 23 4 35 2 35 -6 0 -6 6 -11 14 -11
12 0 13 7 3 42 -7 23 -17 43 -23 45 -6 2 -22 -10 -37 -27z m30 -22 c-3 -8 -6
-5 -6 6 -1 11 2 17 5 13 3 -3 4 -12 1 -19z"/>
<path d="M1470 285 c-17 -21 -3 -35 36 -35 19 0 34 -4 34 -10 0 -11 -13 -14
-45 -10 -15 1 -17 -1 -8 -10 15 -16 62 -5 70 16 7 20 -13 34 -50 34 -17 0 -26
4 -22 10 4 6 15 8 26 5 11 -4 19 -2 19 4 0 16 -46 13 -60 -4z"/>
<path d="M849 263 c-9 -2 -21 -15 -27 -28 -9 -19 -8 -28 4 -40 18 -17 60 -20
69 -4 4 6 -4 9 -22 7 -23 -2 -29 1 -31 20 -4 27 23 40 49 23 15 -9 19 -8 19 3
0 8 -7 17 -16 20 -16 6 -19 6 -45 -1z"/>
<path d="M1351 223 c0 -29 17 -78 18 -55 1 17 43 32 58 20 7 -5 13 -5 17 0 6
10 -63 62 -82 62 -7 0 -12 -12 -11 -27z m39 -14 c0 -5 -4 -9 -10 -9 -5 0 -10
7 -10 16 0 8 5 12 10 9 6 -3 10 -10 10 -16z"/>
<path d="M1240 197 c0 -15 32 -77 40 -77 12 0 -14 73 -28 78 -7 2 -12 2 -12
-1z"/>
<path d="M1111 161 c-25 -25 -26 -35 -5 -56 20 -19 65 -16 72 5 5 13 3 13 -11
1 -23 -19 -47 -6 -47 25 0 24 3 26 30 22 19 -3 29 -1 27 6 -6 20 -45 18 -66
-3z"/>
<path d="M2212 1798 c-2 -52 0 -58 18 -58 23 0 27 15 6 23 -9 4 -16 24 -19 49
-3 38 -4 36 -5 -14z"/>
<path d="M45 1598 c-5 -5 -19 -15 -30 -23 -25 -17 -11 -33 15 -17 11 7 24 12
30 12 11 0 43 -61 76 -144 28 -73 32 -62 5 15 -14 41 -72 153 -85 165 0 1 -5
-2 -11 -8z"/>
<path d="M2174 1541 c-43 -66 -95 -252 -93 -333 0 -18 9 10 18 62 20 112 66
253 87 271 13 10 20 10 36 0 11 -7 22 -10 25 -7 10 10 -6 33 -27 39 -16 4 -26
-3 -46 -32z"/>
<path d="M32 1144 c-16 -11 -22 -25 -22 -50 0 -21 4 -33 10 -29 6 3 10 16 10
27 0 12 7 30 17 40 22 24 13 32 -15 12z"/>
<path d="M11 1034 c0 -11 3 -14 6 -6 3 7 2 16 -1 19 -3 4 -6 -2 -5 -13z"/>
<path d="M2225 1020 c3 -5 11 -10 16 -10 6 0 7 5 4 10 -3 6 -11 10 -16 10 -6
0 -7 -4 -4 -10z"/>
</g>
</svg>
