<?xml version="1.0" standalone="no"?>
<!DOCTYPE svg PUBLIC "-//W3C//DTD SVG 20010904//EN"
 "http://www.w3.org/TR/2001/REC-SVG-20010904/DTD/svg10.dtd">
<svg version="1.0" xmlns="http://www.w3.org/2000/svg"
 width="359.000000pt" height="351.000000pt" viewBox="0 0 359.000000 351.000000"
 preserveAspectRatio="xMidYMid meet">

<g transform="translate(0.000000,351.000000) scale(0.100000,-0.100000)"
fill="#000000" stroke="none">
<path d="M1704 3471 c-103 -27 -205 -108 -243 -196 -43 -97 -49 -171 -23 -270
27 -102 102 -188 197 -226 130 -53 171 -53 313 0 52 19 142 102 165 151 60
127 60 233 1 359 -25 53 -104 126 -170 157 -62 29 -177 41 -240 25z"/>
<path d="M315 2571 c-56 -10 -112 -39 -136 -70 -30 -37 -21 -107 16 -137 30
-23 118 -54 158 -54 14 0 28 -4 31 -9 3 -5 29 -11 58 -14 76 -8 149 -25 164
-38 22 -18 17 -57 -8 -70 -13 -7 -60 -12 -111 -11 -78 0 -92 3 -113 23 -13 12
-24 28 -24 36 0 10 -24 13 -100 13 l-99 0 6 -32 c10 -58 77 -108 142 -108 15
0 32 -5 38 -11 11 -11 257 -7 323 6 84 16 152 54 172 97 16 33 16 40 3 72 -28
66 -105 100 -285 126 -123 17 -170 36 -170 70 0 33 29 45 110 45 79 0 130 -16
130 -42 0 -10 23 -13 99 -13 98 0 99 0 94 23 -8 31 -42 66 -83 84 -26 12 -77
17 -205 19 -93 1 -188 -1 -210 -5z"/>
<path d="M962 2339 l3 -240 295 0 295 0 3 36 3 35 -188 0 c-134 0 -193 4 -201
12 -7 7 -12 29 -12 49 0 72 -7 69 186 69 l174 0 0 45 0 45 -177 2 -178 3 -3
24 c-2 12 -1 34 2 47 l6 24 185 0 185 0 0 45 0 45 -290 0 -290 0 2 -241z"/>
<path d="M1680 2338 l0 -243 95 0 95 0 0 168 c0 92 3 167 8 167 13 0 29 -15
67 -60 43 -51 141 -163 200 -228 l40 -44 142 -1 142 -2 3 243 3 242 -100 0
-100 0 3 -170 c2 -96 -1 -170 -6 -170 -12 0 -41 29 -138 136 -45 49 -96 105
-113 124 -18 19 -40 45 -48 58 -15 21 -21 22 -154 22 l-139 0 0 -242z"/>
<path d="M2838 2552 c-19 -32 -74 -111 -91 -132 -7 -8 -25 -35 -41 -60 -16
-24 -33 -49 -38 -54 -23 -29 -138 -198 -138 -204 0 -5 132 -7 190 -2 3 0 14
13 23 30 36 61 34 60 217 60 183 0 185 -1 212 -60 7 -16 15 -30 18 -31 61 -6
227 -2 222 6 -3 6 -25 38 -49 72 -24 35 -43 65 -43 67 0 4 -50 78 -111 167 -6
9 -34 51 -61 93 l-49 76 -122 0 -122 0 -17 -28z m169 -132 c13 -25 36 -62 49
-82 42 -65 39 -68 -91 -68 l-115 0 0 25 c0 14 5 25 10 25 6 0 10 4 10 9 0 5
16 33 35 62 19 30 35 60 35 67 0 30 43 6 67 -38z"/>
<path d="M20 1815 l0 -125 519 0 c500 0 519 -1 543 -20 14 -10 31 -33 38 -50
15 -36 6 -56 -136 -300 -50 -85 -102 -175 -115 -200 -14 -25 -50 -88 -82 -142
-31 -53 -57 -98 -57 -101 0 -3 -16 -29 -35 -58 -19 -30 -35 -57 -35 -61 0 -4
-16 -32 -35 -62 -19 -30 -35 -57 -35 -60 0 -3 -15 -29 -33 -58 -18 -29 -39
-66 -47 -82 l-15 -28 90 -84 c49 -46 92 -84 95 -84 4 0 16 18 28 41 37 68 57
104 62 109 3 3 10 14 16 25 55 102 78 141 84 150 7 9 34 56 74 130 6 11 13 22
16 25 3 3 10 14 16 25 55 101 78 141 84 150 4 6 17 26 27 45 11 19 32 58 47
85 16 28 32 55 36 60 4 6 20 33 35 60 33 59 118 207 144 250 17 29 58 101 88
155 8 14 24 41 35 60 12 19 31 53 43 75 57 103 79 142 97 168 l19 27 -805 0
-806 0 0 -125z"/>
<path d="M1985 1885 c19 -30 35 -56 35 -59 0 -3 15 -29 33 -58 18 -29 41 -69
50 -88 19 -37 39 -72 47 -80 3 -3 18 -30 34 -60 48 -90 51 -95 57 -100 3 -3
21 -32 39 -65 18 -33 42 -76 53 -95 11 -19 31 -55 45 -80 13 -25 28 -49 32
-55 7 -9 34 -57 74 -130 6 -11 13 -22 16 -25 3 -3 10 -14 16 -25 6 -11 26 -47
44 -80 18 -33 38 -69 44 -80 6 -11 13 -22 16 -25 4 -4 24 -39 54 -95 6 -11 13
-22 16 -25 3 -3 10 -14 16 -25 6 -11 26 -47 44 -80 18 -33 38 -69 44 -80 6
-11 13 -22 16 -25 5 -5 25 -41 62 -109 12 -23 25 -41 29 -41 5 0 48 38 96 84
l88 84 -15 28 c-8 16 -45 81 -81 144 -36 63 -77 135 -91 160 -14 25 -74 128
-133 230 -58 101 -118 204 -132 229 -14 25 -58 102 -99 172 -87 148 -94 183
-43 230 l31 29 522 0 521 0 0 125 0 125 -807 0 -808 0 35 -55z"/>
<path d="M1743 1584 c-18 -31 -33 -60 -33 -65 0 -5 -4 -9 -10 -9 -5 0 -10 -4
-10 -10 0 -5 -18 -39 -40 -75 -22 -36 -40 -69 -40 -74 0 -5 -3 -11 -7 -13 -10
-4 -52 -76 -60 -100 -3 -10 -9 -18 -14 -18 -5 0 -9 -5 -9 -10 0 -6 -17 -39
-38 -73 -77 -126 -112 -185 -112 -192 0 -4 -9 -19 -19 -33 -21 -30 -346 -580
-408 -692 -14 -25 -29 -49 -34 -55 -17 -18 -9 -33 29 -50 20 -9 68 -33 106
-51 53 -26 71 -31 78 -22 4 7 8 16 8 20 0 4 6 13 13 20 15 17 57 88 64 111 3
9 9 17 14 17 5 0 9 4 9 10 0 5 20 42 44 82 134 222 216 360 216 364 0 3 15 28
33 57 19 29 45 72 59 97 60 106 129 213 145 226 10 7 38 14 61 14 49 0 81 -26
117 -96 11 -22 30 -53 42 -70 13 -17 23 -33 23 -36 0 -7 186 -319 200 -335 5
-7 10 -15 10 -18 0 -3 16 -31 35 -61 19 -30 35 -57 35 -59 0 -3 23 -41 50 -85
28 -44 50 -82 50 -85 0 -3 8 -18 19 -33 10 -15 35 -54 56 -88 l39 -61 100 51
c56 28 106 55 113 59 8 5 1 24 -26 65 -21 31 -45 71 -54 89 -9 17 -44 75 -77
127 -33 53 -60 98 -60 100 0 3 -25 44 -55 91 -30 46 -55 87 -55 91 0 3 -11 20
-25 38 -14 18 -25 36 -25 39 0 3 -53 93 -118 199 -64 106 -126 210 -137 231
-11 20 -23 37 -27 37 -5 0 -8 4 -8 9 0 6 -43 81 -97 168 -53 87 -103 170 -112
185 -9 16 -18 28 -21 28 -3 0 -20 -25 -37 -56z"/>
</g>
</svg>
